C:\GBW_MyPrograms\KinderuniversiteitApp\Resultaten\New_group\Olaf\Olaf_v1.mot
version=1
nRows=16
nColumns=29
inDegrees=yes
endheader
                time	         pelvis_tilt	           pelvis_tx	           pelvis_ty	       hip_flexion_l	       hip_flexion_r	        knee_angle_l	        knee_angle_r	       ankle_angle_l	       ankle_angle_r	    lumbar_extension	hamstrings_r/activation	bifemsh_r/activation	glut_max_r/activation	iliopsoas_r/activation	rect_fem_r/activation	  vasti_r/activation	gastroc_r/activation	 soleus_r/activation	tib_ant_r/activation	hamstrings_l/activation	bifemsh_l/activation	glut_max_l/activation	iliopsoas_l/activation	rect_fem_l/activation	  vasti_l/activation	gastroc_l/activation	 soleus_l/activation	tib_ant_l/activation	
          1.42152258	        -16.95179621	          1.71912992	          0.87859972	         38.53754354	          6.07047860	         -6.83883546	        -18.44878189	         15.02748012	         14.22839727	          1.13720359	          0.37514109	          0.97387824	          0.07925913	          0.99408116	          0.07372033	          0.05172754	          0.99571415	          0.99804500	          0.05193959	          0.99202296	          0.62698105	          0.98310491	          0.05930644	          0.06416389	          0.47495047	          0.05112187	          0.05102303	          0.99810246	
          1.43099939	        -16.68789954	          1.73670504	          0.87606624	         36.62056136	          6.62383526	         -5.51688729	        -22.08361318	         13.26185195	         14.12261835	          1.61728446	          0.32352485	          0.97513123	          0.06909828	          0.93583188	          0.07287823	          0.05086298	          0.99566564	          0.99827562	          0.05116296	          0.99477005	          0.76605797	          0.98784699	          0.05446100	          0.05879838	          0.40912902	          0.05069689	          0.05056088	          0.99883950	
          1.44047621	        -16.43056212	          1.75031036	          0.87418581	         34.99519038	          7.64707930	         -4.56464044	        -26.36037335	         10.56497960	         13.44102279	          1.94150329	          0.27873439	          0.96859523	          0.06033825	          0.96065650	          0.43299056	          0.05016484	          0.99584975	          0.99814640	          0.05026852	          0.99034082	          0.85214464	          0.97480465	          0.05602071	          0.05817778	          0.35299575	          0.05094110	          0.05080582	          0.99869038	
          1.44995303	        -16.24639489	          1.76381492	          0.87348092	         33.88068673	          9.22606558	         -4.02574381	        -31.10800193	          6.25688039	         11.56418447	          2.09564757	          0.24013371	          0.92506033	          0.05385169	          0.97497648	          0.65310454	          0.05010351	          0.93200497	          0.87931499	          0.05007314	          0.99211016	          0.90327520	          0.97693093	          0.06045165	          0.05700189	          0.30470541	          0.05139478	          0.05147102	          0.99900299	
          1.45942984	        -16.05717408	          1.77602289	          0.87386875	         33.13653944	         11.05639603	         -3.97657368	        -35.77172591	          1.77771798	          8.45719978	          2.02752050	          0.20689092	          0.81229004	          0.05182579	          0.98272339	          0.78757210	          0.05005914	          0.80480909	          0.75889017	          0.23717204	          0.99315006	          0.88302694	          0.98007057	          0.06104833	          0.05520375	          0.26319785	          0.05075313	          0.05065637	          0.99969696	
          1.46890666	        -15.83391328	          1.78734524	          0.87499409	         32.63644522	         12.92735181	         -4.45488870	        -40.12720312	         -1.58159938	          4.62213117	          1.77143941	          0.17825843	          0.71420309	          0.05274388	          0.98629098	          0.86961962	          0.41851790	          0.69483797	          0.65484699	          0.53308045	          0.99117999	          0.76709545	          0.98466912	          0.05807831	          0.05292188	          0.54960325	          0.05008215	          0.05001762	          0.99973888	
          1.47838348	        -15.52785612	          1.79813179	          0.87671226	         32.19615545	         14.60674133	         -5.35878340	        -43.91184247	         -3.02807504	          1.67802444	          1.32211240	          0.15359915	          0.64025384	          0.05371965	          0.98660412	          0.91961363	          0.64390546	          0.59995786	          0.56506247	          0.71040072	          0.98784764	          0.66365825	          0.98856935	          0.05456404	          0.11421769	          0.72441661	          0.21379682	          0.41863875	          0.86251149	
          1.48786030	        -15.13352212	          1.80851811	          0.87904409	         31.68032535	         16.02724105	         -6.42408659	        -47.01975185	         -2.91791970	          0.12767940	          0.69061444	          0.13235966	          0.59890515	          0.05322688	          0.98864036	          0.95018593	          0.78203335	          0.51804216	          0.48756611	          0.81894608	          0.98310619	          0.58065568	          0.98630444	          0.05682609	          0.10726090	          0.83062869	          0.18525398	          0.36162888	          0.91459580	
          1.49733711	        -14.64944758	          1.81871518	          0.88184036	         30.93757692	         17.17420347	         -7.18650709	        -49.45261022	         -3.13605481	         -0.71931049	         -0.09993066	          0.11411820	          0.58299810	          0.05328104	          0.98930352	          0.96837608	          0.68678941	          0.44731003	          0.42068472	          0.88515477	          0.98358852	          0.51870215	          0.98547129	          0.05724224	          0.10047826	          0.89560363	          0.16064333	          0.31239000	          0.94607594	
          1.50681393	        -14.07069421	          1.82888459	          0.88488518	         29.90876358	         18.06504306	         -7.56898706	        -51.32018433	         -3.76590909	         -1.17034260	         -1.04249652	          0.09847541	          0.59212738	          0.05317998	          0.99006516	          0.97882370	          0.60342336	          0.38623457	          0.36296420	          0.92464123	          0.98198986	          0.48131451	          0.98259873	          0.05830420	          0.09651996	          0.93424930	          0.13945985	          0.26981133	          0.96461592	
          1.51629075	        -13.42497633	          1.83906567	          0.88800789	         28.62245247	         18.76562048	         -7.59894675	        -52.73876060	         -4.62348261	         -1.28256151	         -2.06643290	          0.08512237	          0.61263852	          0.05313326	          0.99055725	          0.98420904	          0.52785207	          0.33350390	          0.31315678	          0.94754289	          0.98060479	          0.46625456	          0.97961364	          0.05927139	          0.09418710	          0.94078536	          0.12128432	          0.23297461	          0.97462717	
          1.52576756	        -12.76431613	          1.84921047	          0.89109464	         27.17790229	         19.36953184	         -7.40850056	        -53.79493610	         -5.11122810	         -1.09654493	         -3.11598704	          0.07382558	          0.63389360	          0.05310134	          0.99086066	          0.98656605	          0.46188527	          0.28798391	          0.27017930	          0.96035208	          0.97909979	          0.46793783	          0.97661617	          0.06024807	          0.09325596	          0.88737632	          0.10580451	          0.20113131	          0.97832609	
          1.53524438	        -12.10238677	          1.85922895	          0.89417510	         25.65991536	         19.92049718	         -7.17729539	        -54.53789933	         -4.56585956	         -0.63859921	         -4.18887701	          0.06447939	          0.65025280	          0.05308959	          0.99103292	          0.98732946	          0.40528485	          0.24869196	          0.23309677	          0.96782554	          0.97742350	          0.48039071	          0.97375842	          0.06125900	          0.09337164	          0.80160444	          0.09280744	          0.17363780	          0.97611386	
          1.54472120	        -11.44024143	          1.86903710	          0.89732871	         24.12987737	         20.43786479	         -7.00800378	        -54.98637134	         -3.08536030	          0.08633839	         -5.29658876	          0.05726952	          0.65982310	          0.05309730	          0.99111190	          0.98733028	          0.35748518	          0.21478659	          0.20110553	          0.97284180	          0.97575511	          0.50123086	          0.97080908	          0.06246243	          0.09408344	          0.70947379	          0.08227302	          0.14994454	          0.97187492	
          1.55419802	        -10.77953583	          1.87865109	          0.90052066	         22.58566060	         20.92649577	         -6.80862663	        -55.14880929	         -1.48154704	          1.10371859	         -6.43390296	          0.05316444	          0.66310088	          0.05311879	          0.99110347	          0.98695086	          0.31762523	          0.18554223	          0.17351241	          0.97674230	          0.97424094	          0.53104534	          0.96720475	          0.06399350	          0.09485499	          0.62201631	          0.07429208	          0.12952391	          0.97005751	
          1.56367483	        -10.12689132	          1.88812068	          0.90365480	         21.02457265	         21.39142831	         -6.53250854	        -55.02071516	         -0.00323014	          2.42803680	         -7.59818335	          0.05242939	          0.66214364	          0.05315367	          0.99101248	          0.98632922	          0.28416838	          0.16034288	          0.14972436	          0.97989660	          0.97297075	          0.56865143	          0.96264232	          0.06601286	          0.09534049	          0.54330481	          0.06890161	          0.11187915	          0.97059820	
